pedal_clip_forces_x_-0.09_y_-0.06.mot
version=1
nRows=104
nColumns=4
inDegrees=yes
endheader
time	PedalClip_calcn_r_Fx	PedalClip_calcn_r_Fy	PedalClip_calcn_r_Fz
0.86145323	-10.2270273802595	26.0535139899438	0
0.86181347	-10.3478326367004	26.141312543491	0
0.86186295	-10.4690308441411	26.2297814489412	0
0.86199543	-10.5906488028928	26.3189559071827	0
0.86234486	-10.7126698334063	26.4087903554212	0
0.86248086	-10.8350589105111	26.4992215935573	0
0.86273122	-10.9577924161952	26.5902166731721	0
0.86308655	-11.080877049009	26.6818114709497	0
0.86313689	-11.2043389921983	26.7740728500189	0
0.86326781	-11.3282028791998	26.8670354299778	0
0.86361856	-11.4524546430675	26.9606550709285	0
0.86375768	-11.5770649879007	27.0548717046939	0
0.86401014	-11.7020146920108	27.1496531993009	0
0.86436108	-11.827310860247	27.2450305660907	0
0.86441201	-11.9529780035126	27.3410650584495	0
0.86454158	-12.079037129309	27.4377870096418	0
0.86489258	-12.2054651784974	27.5351437867596	0
0.8650321	-12.3322182704535	27.6330635865671	0
0.86528552	-12.4592625813539	27.7315047645855	0
0.86563352	-12.5865943817414	27.8304950820013	0
0.86568444	-12.714229853831	27.9300942571113	0
0.86581319	-12.8421845701484	28.0303291449962	0
0.86616227	-12.9704345080089	28.1311463639157	0
0.86629938	-13.098938786344	28.2324765006748	0
0.86655086	-13.227667690732	28.3342794731957	0
0.86689692	-13.3566221982946	28.4365805873122	0
0.8669474	-13.4858239621568	28.5394373945947	0
0.86707568	-13.6152915189552	28.6428764922339	0
0.86742118	-13.7449970952191	28.7468404199828	0
0.86755616	-13.8748904502935	28.8512529880172	0
0.86780524	-14.0049334785	28.9560703065397	0
0.86814977	-14.1351246179133	29.0613210649286	0
0.86819957	-14.2654853533024	29.1670675164505	0
0.86832756	-14.3960348734338	29.2733380050643	0
0.86866835	-14.5267499493076	29.3800800160817	0
0.86880143	-14.6575885808636	29.4872255201747	0
0.86904778	-14.7885213768011	29.5947371267168	0
0.86939115	-14.9195568364045	29.7026451128598	0
0.86944003	-15.0507273049685	29.8110128147881	0
0.86956788	-15.1820599592289	29.9198720607316	0
0.86990261	-15.3135320667587	30.0291693104841	0
0.87003407	-15.4450947764746	30.1388312331946	0
0.87027726	-15.576711762779	30.2488171084405	0
0.87061978	-15.7083900225906	30.3591592577539	0
0.87066747	-15.8401616774501	30.4699247173046	0
0.87079535	-15.9720534647128	30.5811475326872	0
0.87112246	-16.1040473462244	30.6927813247189	0
0.87125038	-16.2361022967853	30.8047630255964	0
0.8714885	-16.3681894109996	30.9170599009895	0
0.87183095	-16.5003242501688	31.0297066466015	0
0.87187679	-16.6325463079372	31.1427725805929	0
0.87200513	-16.7648893905047	31.2562988213823	0
0.8723204	-16.8973388328307	31.3702425323595	0
0.87243876	-17.0298505619931	31.4845387827394	0
0.8726697	-17.1623915707006	31.5991518183403	0
0.87301816	-17.2949772538683	31.7141108280427	0
0.87305712	-17.4276454275352	31.8294823844891	0
0.87318967	-17.5604317550231	31.9453123422541	0
0.8734645	-17.693338016353	32.061578716596	0
0.87355129	-17.8263422726571	32.1782431029847	0
0.87377721	-17.9594289867056	32.2952918773706	0
0.87410401	-18.0926266990743	32.412771498502	0
0.87415505	-18.2259792850139	32.5307589850527	0
0.87427787	-18.3595237281503	32.649309232131	0
0.87461358	-18.4932619209821	32.7684014208288	0
0.87473962	-18.6271721380959	32.8879935273373	0
0.87498042	-18.7612441017927	33.0080737265804	0
0.87532795	-18.8955037647078	33.1286771852872	0
0.8753652	-19.0299479326519	33.2497929108465	0
0.87549809	-19.1645451050596	33.3713636924044	0
0.87576527	-19.2992679640496	33.4933265886183	0
0.87585226	-19.4340708349323	33.615627506207	0
0.87607311	-19.5689178435092	33.7382521546759	0
0.87639546	-19.703818004203	33.8612419034004	0
0.87644598	-19.8388400452161	33.9847027323945	0
0.87656761	-19.9740829670536	34.1087563226428	0
0.87689741	-20.1096326313336	34.2334813373867	0
0.877021	-20.245519830932	34.3589111579346	0
0.87725843	-20.3817527909775	34.4850773032269	0
0.87761376	-20.5183496797209	34.6120226795475	0
0.87764929	-20.655328633276	34.7397715966661	0
0.87778151	-20.7927088325603	34.8683161270322	0
0.87803641	-20.9305233063078	34.9976288595945	0
0.87811634	-21.0688335469703	35.12774818714	0
0.87833959	-21.2077048446125	35.258755100336	0
0.87865293	-21.3472183040985	35.390738440751	0
0.87870503	-21.4874525731748	35.5237680343337	0
0.87882397	-21.6284954671379	35.6579191640246	0
0.87915762	-21.7704367031783	35.7932718495183	0
0.87928056	-21.9133438333951	35.92991597534	0
0.87951836	-22.0572660501537	36.0679558497092	0
0.87989323	-22.2022639151078	36.2075094191212	0
0.87993071	-22.3483995929861	36.3486689352518	0
0.88005771	-22.4957448507927	36.4915052948851	0
0.88030636	-22.6443750327979	36.636087199826	0
0.88038703	-22.7943524044194	36.7825004222911	0
0.88060485	-22.9457389734037	36.9308461968494	0
0.88090756	-23.0986265712664	37.0812400169961	0
0.88096128	-23.2531126810047	37.2337614109722	0
0.88107725	-23.4092711967201	37.3884165683043	0
0.88141347	-23.5671245585953	37.545139551595	0
0.88153661	-23.7266395455365	37.7038856572966	0
0.88177307	-23.8877753613744	37.8646627797345	0
0.8821964	-24.0505116572869	38.0274773036059	0
